# xmcd
#
# Track frame offsets:
#	150
#	14500
#	28150
#	39043
#	49473
#	67465
#	85363
#	101795
#	116901
#	128901
#	141388
#	158543
#	170720
#	184989
#	200899
#	215869
#
# Disc length: 3040 seconds
#
# Revision: 1
# Processed by: cddbd v1.5.2PL0 Copyright (c) Steve Scherf et al.
# Submitted via: audiograbber 1.83.01
#
DISCID=050bde10
DTITLE=Various Artist - Trucker&Cowboys CD2
DYEAR=1900
DGENRE=Country
TTITLE0=Gus Backus - Tom Dooley
TTITLE1=Shadoxx - Apache
TTITLE2=Ralf Paulsen - Oh my Darling Caroline
TTITLE3=Medium Terzett - Gelbe Rose
TTITLE4=Gunter Gabriel - Intercity Linie Nummer 4
TTITLE5=Tennessee Ernest G. - Ein Laster mit 'nem Cowboyhut
TTITLE6=Ralf Paulsen - High Noon- 12 Uhr Mittags
TTITLE7=Peter Hinnen - Auf meiner Ranch bin ich König
TTITLE8=Ladies Country Express - 10 Tage auf der Autobahn
TTITLE9=Peter Beil - Corinna, Corinna
TTITLE10=Tennessee Ernest G. - Auch ein Trucker hat ein Herz
TTITLE11=Ralf Paulsen - Kein Gold im Blue River
TTITLE12=Western Railroad - Immer wieder Whiskey pur
TTITLE13=Medium Terzett - Es hängt ein Pferdehalfter an der Wand
TTITLE14=Jürgen Prinz - Ein Freund, ein Held, ein Superstar
TTITLE15=Marion Maerz - Wer Liebe sucht
EXTD=
EXTT0=
EXTT1=
EXTT2=
EXTT3=
EXTT4=
EXTT5=
EXTT6=
EXTT7=
EXTT8=
EXTT9=
EXTT10=
EXTT11=
EXTT12=
EXTT13=
EXTT14=
EXTT15=
PLAYORDER=
